<?xml version="1.0" standalone="no"?>
<!DOCTYPE svg PUBLIC "-//W3C//DTD SVG 20010904//EN"
 "http://www.w3.org/TR/2001/REC-SVG-20010904/DTD/svg10.dtd">
<svg version="1.0" xmlns="http://www.w3.org/2000/svg"
 width="512.000000pt" height="512.000000pt" viewBox="0 0 512.000000 512.000000"
 preserveAspectRatio="xMidYMid meet">
<metadata>
Created by potrace 1.14, written by Peter Selinger 2001-2017
</metadata>
<g transform="translate(0.000000,512.000000) scale(0.100000,-0.100000)"
fill="#000000" stroke="none">
<path d="M1142 4889 c-308 -52 -568 -274 -666 -569 -34 -103 -38 -128 -41
-255 -5 -152 29 -295 97 -416 12 -21 20 -40 17 -42 -2 -2 -114 -43 -249 -91
-197 -70 -250 -93 -272 -117 l-28 -29 0 -1510 c0 -1119 3 -1516 12 -1534 15
-34 51 -56 91 -57 17 -1 158 45 312 101 388 141 772 279 824 297 39 13 48 13
85 -1 22 -8 226 -81 451 -162 226 -81 460 -165 520 -186 61 -22 137 -49 170
-60 33 -11 67 -24 76 -29 11 -5 77 14 205 60 104 38 261 94 349 125 88 32 189
68 225 81 36 13 117 42 180 65 63 23 166 60 228 82 l113 40 97 -35 c53 -19
160 -58 237 -85 77 -28 292 -105 477 -171 185 -67 348 -121 362 -121 41 0 74
20 91 56 14 29 15 193 13 1544 l-3 1512 -35 29 c-19 16 -38 29 -43 29 -9 0
-414 143 -452 159 -11 5 -49 19 -85 31 -36 12 -74 26 -85 30 -11 5 -74 27
-140 50 -66 23 -136 48 -155 56 -65 26 -265 96 -277 97 -6 0 -49 -14 -95 -30
-45 -17 -186 -68 -313 -113 -126 -45 -273 -98 -325 -117 -52 -18 -197 -70
-322 -115 l-228 -81 -270 97 c-148 53 -274 96 -280 96 -5 0 8 35 29 78 61 121
84 223 84 372 0 143 -20 237 -77 357 -113 237 -307 400 -552 463 -89 23 -269
33 -352 19z m280 -393 c291 -87 419 -447 251 -704 -151 -228 -471 -281 -681
-112 -220 177 -239 499 -41 700 120 122 301 166 471 116z"/>
</g>
</svg>
